<?xml version="1.0" encoding="UTF-8" standalone="no"?>
<!DOCTYPE svg PUBLIC "-//W3C//DTD SVG 1.1//EN" "http://www.w3.org/Graphics/SVG/1.1/DTD/svg11.dtd">
<!-- Generated by graphviz version 2.40.1 (20161225.0304)
 -->
<!-- Title: Phicomm N1 u&#45;boot Pages: 1 -->
<svg width="610pt" height="692pt" viewBox="0.00 0.00 609.81 692.00" xmlns="http://www.w3.org/2000/svg" xmlns:xlink="http://www.w3.org/1999/xlink">
<g id="graph0" class="graph" transform="scale(1 1) rotate(0) translate(4 688)">
<title>Phicomm N1 u-boot</title>
<polygon fill="#ffffff" stroke="transparent" points="-4,4 -4,-688 605.8065,-688 605.8065,4 -4,4"/>
<!-- bootcmd -->
<g id="node1" class="node">
<title>bootcmd</title>
<ellipse fill="none" stroke="#000000" cx="290.8106" cy="-666" rx="44.6665" ry="18"/>
<text text-anchor="middle" x="290.8106" y="-661.8" font-family="Times,serif" font-size="14.00" fill="#000000">bootcmd</text>
</g>
<!-- start_autoscript -->
<g id="node2" class="node">
<title>start_autoscript</title>
<ellipse fill="none" stroke="#000000" cx="290.8106" cy="-594" rx="70.6393" ry="18"/>
<text text-anchor="middle" x="290.8106" y="-589.8" font-family="Times,serif" font-size="14.00" fill="#000000">start_autoscript</text>
</g>
<!-- bootcmd&#45;&gt;start_autoscript -->
<g id="edge1" class="edge">
<title>bootcmd-&gt;start_autoscript</title>
<path fill="none" stroke="#000000" d="M290.8106,-647.8314C290.8106,-640.131 290.8106,-630.9743 290.8106,-622.4166"/>
<polygon fill="#000000" stroke="#000000" points="294.3107,-622.4132 290.8106,-612.4133 287.3107,-622.4133 294.3107,-622.4132"/>
</g>
<!-- start_usb_autoscript -->
<g id="node3" class="node">
<title>start_usb_autoscript</title>
<ellipse fill="none" stroke="#000000" cx="88.8106" cy="-522" rx="88.6217" ry="18"/>
<text text-anchor="middle" x="88.8106" y="-517.8" font-family="Times,serif" font-size="14.00" fill="#000000">start_usb_autoscript</text>
</g>
<!-- start_autoscript&#45;&gt;start_usb_autoscript -->
<g id="edge2" class="edge">
<title>start_autoscript-&gt;start_usb_autoscript</title>
<path fill="none" stroke="#000000" d="M249.4455,-579.256C218.5593,-568.247 176.0812,-553.1063 142.564,-541.1596"/>
<polygon fill="#000000" stroke="#000000" points="143.5147,-537.7828 132.92,-537.7222 141.1644,-544.3765 143.5147,-537.7828"/>
</g>
<!-- start_mmc_autoscript -->
<g id="node5" class="node">
<title>start_mmc_autoscript</title>
<ellipse fill="none" stroke="#000000" cx="290.8106" cy="-522" rx="94.9187" ry="18"/>
<text text-anchor="middle" x="290.8106" y="-517.8" font-family="Times,serif" font-size="14.00" fill="#000000">start_mmc_autoscript</text>
</g>
<!-- start_autoscript&#45;&gt;start_mmc_autoscript -->
<g id="edge4" class="edge">
<title>start_autoscript-&gt;start_mmc_autoscript</title>
<path fill="none" stroke="#000000" d="M290.8106,-575.8314C290.8106,-568.131 290.8106,-558.9743 290.8106,-550.4166"/>
<polygon fill="#000000" stroke="#000000" points="294.3107,-550.4132 290.8106,-540.4133 287.3107,-550.4133 294.3107,-550.4132"/>
</g>
<!-- start_emmc_autoscript -->
<g id="node6" class="node">
<title>start_emmc_autoscript</title>
<ellipse fill="none" stroke="#000000" cx="502.8106" cy="-522" rx="98.9916" ry="18"/>
<text text-anchor="middle" x="502.8106" y="-517.8" font-family="Times,serif" font-size="14.00" fill="#000000">start_emmc_autoscript</text>
</g>
<!-- start_autoscript&#45;&gt;start_emmc_autoscript -->
<g id="edge6" class="edge">
<title>start_autoscript-&gt;start_emmc_autoscript</title>
<path fill="none" stroke="#000000" d="M333.2025,-579.6028C365.6747,-568.5745 410.7849,-553.254 446.3206,-541.1853"/>
<polygon fill="#000000" stroke="#000000" points="447.7278,-544.4038 456.0711,-537.8738 445.4767,-537.7756 447.7278,-544.4038"/>
</g>
<!-- s905_autoscript -->
<g id="node4" class="node">
<title>s905_autoscript</title>
<ellipse fill="none" stroke="#000000" cx="290.8106" cy="-450" rx="72.3729" ry="18"/>
<text text-anchor="middle" x="290.8106" y="-445.8" font-family="Times,serif" font-size="14.00" fill="#000000">s905_autoscript</text>
</g>
<!-- start_usb_autoscript&#45;&gt;s905_autoscript -->
<g id="edge3" class="edge">
<title>start_usb_autoscript-&gt;s905_autoscript</title>
<path fill="none" stroke="#000000" d="M133.1404,-506.1993C164.6398,-494.9718 207.0123,-479.8687 239.8985,-468.1469"/>
<polygon fill="#000000" stroke="#000000" points="241.0961,-471.4358 249.3405,-464.7814 238.7458,-464.8421 241.0961,-471.4358"/>
</g>
<!-- s905_autoscript.cmd -->
<g id="node8" class="node">
<title>s905_autoscript.cmd</title>
<ellipse fill="none" stroke="#000000" cx="293.8106" cy="-378" rx="91.4561" ry="18"/>
<text text-anchor="middle" x="293.8106" y="-373.8" font-family="Times,serif" font-size="14.00" fill="#000000">s905_autoscript.cmd</text>
</g>
<!-- s905_autoscript&#45;&gt;s905_autoscript.cmd -->
<g id="edge8" class="edge">
<title>s905_autoscript-&gt;s905_autoscript.cmd</title>
<path fill="none" stroke="#000000" d="M291.5677,-431.8314C291.8885,-424.131 292.27,-414.9743 292.6266,-406.4166"/>
<polygon fill="#000000" stroke="#000000" points="296.124,-406.5503 293.0434,-396.4133 289.1301,-406.2589 296.124,-406.5503"/>
</g>
<!-- start_mmc_autoscript&#45;&gt;s905_autoscript -->
<g id="edge5" class="edge">
<title>start_mmc_autoscript-&gt;s905_autoscript</title>
<path fill="none" stroke="#000000" d="M290.8106,-503.8314C290.8106,-496.131 290.8106,-486.9743 290.8106,-478.4166"/>
<polygon fill="#000000" stroke="#000000" points="294.3107,-478.4132 290.8106,-468.4133 287.3107,-478.4133 294.3107,-478.4132"/>
</g>
<!-- emmc_autoscript -->
<g id="node7" class="node">
<title>emmc_autoscript</title>
<ellipse fill="none" stroke="#000000" cx="501.8106" cy="-450" rx="77.5859" ry="18"/>
<text text-anchor="middle" x="501.8106" y="-445.8" font-family="Times,serif" font-size="14.00" fill="#000000">emmc_autoscript</text>
</g>
<!-- start_emmc_autoscript&#45;&gt;emmc_autoscript -->
<g id="edge7" class="edge">
<title>start_emmc_autoscript-&gt;emmc_autoscript</title>
<path fill="none" stroke="#000000" d="M502.5583,-503.8314C502.4514,-496.131 502.3242,-486.9743 502.2053,-478.4166"/>
<polygon fill="#000000" stroke="#000000" points="505.705,-478.3637 502.0664,-468.4133 498.7057,-478.4609 505.705,-478.3637"/>
</g>
<!-- emmc_autoscript.cmd -->
<g id="node11" class="node">
<title>emmc_autoscript.cmd</title>
<ellipse fill="none" stroke="#000000" cx="500.8106" cy="-378" rx="96.669" ry="18"/>
<text text-anchor="middle" x="500.8106" y="-373.8" font-family="Times,serif" font-size="14.00" fill="#000000">emmc_autoscript.cmd</text>
</g>
<!-- emmc_autoscript&#45;&gt;emmc_autoscript.cmd -->
<g id="edge11" class="edge">
<title>emmc_autoscript-&gt;emmc_autoscript.cmd</title>
<path fill="none" stroke="#000000" d="M501.5583,-431.8314C501.4514,-424.131 501.3242,-414.9743 501.2053,-406.4166"/>
<polygon fill="#000000" stroke="#000000" points="504.705,-406.3637 501.0664,-396.4133 497.7057,-406.4609 504.705,-406.3637"/>
</g>
<!-- u&#45;boot.ext -->
<g id="node9" class="node">
<title>u-boot.ext</title>
<ellipse fill="none" stroke="#000000" cx="330.8106" cy="-306" rx="50.4239" ry="18"/>
<text text-anchor="middle" x="330.8106" y="-301.8" font-family="Times,serif" font-size="14.00" fill="#000000">u-boot.ext</text>
</g>
<!-- s905_autoscript.cmd&#45;&gt;u&#45;boot.ext -->
<g id="edge9" class="edge">
<title>s905_autoscript.cmd-&gt;u-boot.ext</title>
<path fill="none" stroke="#000000" d="M303.1473,-359.8314C307.342,-351.6688 312.3774,-341.87 316.9959,-332.8827"/>
<polygon fill="#000000" stroke="#000000" points="320.1474,-334.4075 321.6051,-323.9134 313.9214,-331.208 320.1474,-334.4075"/>
</g>
<!-- u&#45;boot&#45;n1.bin -->
<g id="node10" class="node">
<title>u-boot-n1.bin</title>
<ellipse fill="none" stroke="#000000" cx="395.8106" cy="-234" rx="63.7511" ry="18"/>
<text text-anchor="middle" x="395.8106" y="-229.8" font-family="Times,serif" font-size="14.00" fill="#000000">u-boot-n1.bin</text>
</g>
<!-- u&#45;boot.ext&#45;&gt;u&#45;boot&#45;n1.bin -->
<g id="edge10" class="edge">
<title>u-boot.ext-&gt;u-boot-n1.bin</title>
<path fill="none" stroke="#000000" d="M346.5453,-288.5708C354.55,-279.7041 364.4231,-268.7678 373.2237,-259.0194"/>
<polygon fill="#000000" stroke="#000000" points="375.8925,-261.2863 379.9956,-251.5182 370.6966,-256.5956 375.8925,-261.2863"/>
</g>
<!-- boot.scr -->
<g id="node13" class="node">
<title>boot.scr</title>
<ellipse fill="none" stroke="#000000" cx="395.8106" cy="-162" rx="41.7542" ry="18"/>
<text text-anchor="middle" x="395.8106" y="-157.8" font-family="Times,serif" font-size="14.00" fill="#000000">boot.scr</text>
</g>
<!-- u&#45;boot&#45;n1.bin&#45;&gt;boot.scr -->
<g id="edge14" class="edge">
<title>u-boot-n1.bin-&gt;boot.scr</title>
<path fill="none" stroke="#000000" d="M395.8106,-215.8314C395.8106,-208.131 395.8106,-198.9743 395.8106,-190.4166"/>
<polygon fill="#000000" stroke="#000000" points="399.3107,-190.4132 395.8106,-180.4133 392.3107,-190.4133 399.3107,-190.4132"/>
</g>
<!-- u&#45;boot.emmc -->
<g id="node12" class="node">
<title>u-boot.emmc</title>
<ellipse fill="none" stroke="#000000" cx="480.8106" cy="-306" rx="62.0225" ry="18"/>
<text text-anchor="middle" x="480.8106" y="-301.8" font-family="Times,serif" font-size="14.00" fill="#000000">u-boot.emmc</text>
</g>
<!-- emmc_autoscript.cmd&#45;&gt;u&#45;boot.emmc -->
<g id="edge12" class="edge">
<title>emmc_autoscript.cmd-&gt;u-boot.emmc</title>
<path fill="none" stroke="#000000" d="M495.7638,-359.8314C493.6013,-352.0463 491.0253,-342.7729 488.6258,-334.1347"/>
<polygon fill="#000000" stroke="#000000" points="491.9743,-333.1117 485.9254,-324.4133 485.2296,-334.9852 491.9743,-333.1117"/>
</g>
<!-- u&#45;boot.emmc&#45;&gt;u&#45;boot&#45;n1.bin -->
<g id="edge13" class="edge">
<title>u-boot.emmc-&gt;u-boot-n1.bin</title>
<path fill="none" stroke="#000000" d="M460.6668,-288.937C449.7375,-279.6792 436.0507,-268.0857 424.0707,-257.9379"/>
<polygon fill="#000000" stroke="#000000" points="425.9971,-254.9828 416.1044,-251.19 421.4727,-260.3242 425.9971,-254.9828"/>
</g>
<!-- boot.cmd -->
<g id="node14" class="node">
<title>boot.cmd</title>
<ellipse fill="none" stroke="#000000" cx="395.8106" cy="-90" rx="47.4956" ry="18"/>
<text text-anchor="middle" x="395.8106" y="-85.8" font-family="Times,serif" font-size="14.00" fill="#000000">boot.cmd</text>
</g>
<!-- boot.scr&#45;&gt;boot.cmd -->
<g id="edge15" class="edge">
<title>boot.scr-&gt;boot.cmd</title>
<path fill="none" stroke="#000000" d="M395.8106,-143.8314C395.8106,-136.131 395.8106,-126.9743 395.8106,-118.4166"/>
<polygon fill="#000000" stroke="#000000" points="399.3107,-118.4132 395.8106,-108.4133 392.3107,-118.4133 399.3107,-118.4132"/>
</g>
<!-- armbianEnv.txt -->
<g id="node15" class="node">
<title>armbianEnv.txt</title>
<ellipse fill="none" stroke="#000000" cx="395.8106" cy="-18" rx="70.6881" ry="18"/>
<text text-anchor="middle" x="395.8106" y="-13.8" font-family="Times,serif" font-size="14.00" fill="#000000">armbianEnv.txt</text>
</g>
<!-- boot.cmd&#45;&gt;armbianEnv.txt -->
<g id="edge16" class="edge">
<title>boot.cmd-&gt;armbianEnv.txt</title>
<path fill="none" stroke="#000000" d="M395.8106,-71.8314C395.8106,-64.131 395.8106,-54.9743 395.8106,-46.4166"/>
<polygon fill="#000000" stroke="#000000" points="399.3107,-46.4132 395.8106,-36.4133 392.3107,-46.4133 399.3107,-46.4132"/>
</g>
</g>
</svg>